<?xml version="1.0" encoding="utf-8"?>
<!-- Generator: Adobe Illustrator 25.0.1, SVG Export Plug-In . SVG Version: 6.00 Build 0)  -->
<svg version="1.0" id="katman_1" xmlns="http://www.w3.org/2000/svg" xmlns:xlink="http://www.w3.org/1999/xlink" x="0px" y="0px"
	 viewBox="0 0 3253.8 2322.2" style="enable-background:new 0 0 3253.8 2322.2;" xml:space="preserve">
<style type="text/css">
	.st0{fill-rule:evenodd;clip-rule:evenodd;fill:#FFF22D;stroke:#000000;stroke-width:16.6402;stroke-miterlimit:33.89;}
	.st1{fill-rule:evenodd;clip-rule:evenodd;fill:#CC2229;stroke:#000000;stroke-width:16.6402;stroke-miterlimit:33.89;}
	.st2{fill-rule:evenodd;clip-rule:evenodd;fill:#E39D30;stroke:#000000;stroke-width:16.6402;stroke-miterlimit:33.89;}
	.st3{fill-rule:evenodd;clip-rule:evenodd;fill:#CD3129;}
	.st4{fill-rule:evenodd;clip-rule:evenodd;stroke:#000000;stroke-width:16.6402;stroke-miterlimit:33.89;}
	.st5{fill-rule:evenodd;clip-rule:evenodd;}
</style>
<g>
	<path class="st0" d="M413.6,835.9l29.1,251.3l43.7,11.1l32.7,340c0,0,218.3-77.6,189.2-321.5C708.3,1116.8,704.7,858.1,413.6,835.9
		L413.6,835.9z"/>
	<path class="st0" d="M650.1,954.2l3.6-55.4c0,0,214.6,18.5,214.6,195.9c0,0,7.3,136.8-69.1,151.5l94.6,158.9l-116.4,44.4
		l-32.7-88.7l7.3,73.9l-120,11.1l-3.6-73.9c0,0,101.9-110.9,80-225.4C708.3,1146.3,722.9,1035.5,650.1,954.2L650.1,954.2z"/>
	<path class="st0" d="M850.2,987.4l101.9,22.2l94.6,425l-109.1,7.4l-21.8-118.2h-18.2v107.2l-69.1-3.7l65.5-22.2l-94.6-158.9
		c0,0,80-18.5,69.1-151.5C868.4,1094.6,864.8,1035.5,850.2,987.4z"/>
	<path class="st0" d="M970.3,1065c0,0,109.1-110.9,254.7,14.8l-7.3,70.2c0,0-109.1,37-98.2,129.3c10.9,92.4,50.9,92.4,80,114.6
		c0,0-58.2,99.8-163.7,44.3l10.9-3.7L970.3,1065z M1261.3,1150l3.6-96.1l76.4-3.7l43.7,110.9l3.6-103.5h80l14.6,402.8l-94.6-3.7
		l-25.5-70.2l-7.3,62.8h-116.4v-48.1c0,0,123.7-14.8,112.8-125.7C1352.2,1275.7,1363.1,1179.6,1261.3,1150L1261.3,1150z"/>
	<path class="st1" d="M1475.9,1053.9c0,0,221.9-77.6,229.2,114.6c0,0-7.3,92.4-58.2,99.8c0,0,109.2,92.4,0,170l-145.5-3.7
		l-7.3-214.3l-21.8-25.9L1475.9,1053.9L1475.9,1053.9z"/>
	<path class="st1" d="M1683.3,1087.2l7.3-55.4l94.6-7.4l87.3,399.1l-112.8,11.1l-3.6-103.5h-18.2l-14.6,118.3l-65.5-18.5
		c0,0,98.2-73.9-10.9-162.6C1646.9,1268.3,1748.7,1235,1683.3,1087.2L1683.3,1087.2z"/>
	<path class="st1" d="M1821.5,1017l101.9-7.4l-7.3,229.1l72.7-14.8l-10.9,155.2l-112.8,11.1l-43.6-184.8V1017z"/>
	<path class="st1" d="M1941.6,1227.6l32.7-243.9l145.5-37l-50.9,291.9l69.1-7.4l-21.8,203.2l-207.4,7.4l7.3-48l61.8-14.8l10.9-155.2
		L1941.6,1227.6L1941.6,1227.6z M2196.2,1223.9l94.6-380.7h549.3l-251,325.2l21.8,62.9l-87.3,14.8l-50.9,66.5h69.1l251-229.1
		l-120,395.4l-531.2,7.4l243.7-314.1l-40-81.3l101.9-3.7l50.9-70.2l-98.2-7.4L2196.2,1223.9L2196.2,1223.9z"/>
	<path class="st2" d="M1241.3,1403.2c63.9,0,115.8-53.8,115.8-120.2s-51.8-120.2-115.8-120.2s-115.8,53.8-115.8,120.2
		S1177.3,1403.2,1241.3,1403.2z"/>
	<path class="st3" d="M1264.1,1326.4l-30.7-16.1l-30.5,16.6l5.6-34.6l-24.9-24.3l34.1-5.3l15-31.6l15.5,31.3l34.2,4.8l-24.5,24.7
		L1264.1,1326.4z"/>
	<path class="st4" d="M553.7,1101.1l10.9,108.1C564.6,1209.2,671,1131.6,553.7,1101.1z M752.9,1114.9v58.2
		C752.9,1173.1,788.4,1145.4,752.9,1114.9z M900.2,1173.1l-5.5,52.7h13.6L900.2,1173.1L900.2,1173.1z"/>
	<path class="st5" d="M1115.8,1297.8v-30.5l-54.6-11.1V1187l87.3,2.8c0,0-8.2-49.9-60-49.9c0,0-57.3,5.5-57.3,80.4
		C1031.2,1220.3,1006.6,1306.2,1115.8,1297.8L1115.8,1297.8z"/>
	<path class="st4" d="M1563.2,1137.1v66.5C1563.2,1203.6,1601.4,1164.8,1563.2,1137.1z M1576.9,1333.9l-2.7,33.3
		C1574.1,1367.1,1615.1,1383.8,1576.9,1333.9z M1732.4,1225.8l13.6,2.8l-8.2-80.4L1732.4,1225.8L1732.4,1225.8z"/>
</g>
</svg>
